<?xml version="1.0" encoding="UTF-8" standalone="no"?>
<svg width="90px" height="76px" viewBox="0 0 90 76" version="1.1" xmlns="http://www.w3.org/2000/svg" xmlns:xlink="http://www.w3.org/1999/xlink" xmlns:sketch="http://www.bohemiancoding.com/sketch/ns">
    <!-- Generator: Sketch 3.4 (15588) - http://www.bohemiancoding.com/sketch -->
    <title>Artboard 7</title>
    <desc>Created with Sketch.</desc>
    <defs></defs>
    <g id="Page-1" stroke="none" stroke-width="1" fill="none" fill-rule="evenodd" sketch:type="MSPage">
        <g id="Artboard-7" sketch:type="MSArtboardGroup" fill="#29323D">
            <g id="Page-1" sketch:type="MSLayerGroup" transform="translate(8.000000, 10.000000)">
                <path d="M12.2993952,8.249775 C16.4056452,5.792025 21.3169355,5.4639625 26.1241935,7.31935833 C29.5457661,8.64187917 32.3721774,11.0198792 35.3655242,13.5368375 C35.9159274,13.9996292 36.4675403,14.4636292 37.0252016,14.9227958 C41.7580645,18.8232958 46.9899194,21.0780458 52.5774194,21.6248167 C53.1108871,21.6761708 53.647379,21.7033583 54.1887097,21.7033583 C60.3653226,21.7033583 67.0143145,18.2898167 74.4556452,11.3141083 L70.3239919,6.9175875 C63.5752016,13.245025 57.9489919,16.0979 53.1653226,15.6236292 C48.7953629,15.1964833 44.6570565,13.3960667 40.8665323,10.272525 C40.3245968,9.82544167 39.7881048,9.37473333 39.2528226,8.92462917 C36.0133065,6.1998375 32.6625,3.3814 28.3016129,1.69637917 C21.8141129,-0.810308333 14.8506048,-0.307641667 9.19657258,3.07750417 C6.37862903,4.7643375 2.49677419,8.29448333 0.544354839,10.9473792 L5.40665323,14.5198167 C6.91028226,12.4771292 10.1310484,9.54692083 12.2993952,8.249775" id="Fill-1" sketch:type="MSShapeGroup"></path>
                <path d="M53.1655645,33.711775 C48.795,33.284025 44.6572984,31.4836083 40.8667742,28.3600667 C40.3248387,27.9129833 39.7883468,27.462275 39.2530645,27.0121708 C36.0135484,24.2873792 32.6627419,21.4689417 28.3018548,19.7839208 C21.8143548,17.2772333 14.8502419,17.7805042 9.19620968,21.1650458 C6.37826613,22.851275 2.49701613,26.382025 0.543991935,29.0343167 L5.40629032,32.6085667 C6.91052419,30.565275 10.1312903,27.6344625 12.2996371,26.3373167 C16.4058871,23.8801708 21.3171774,23.5509 26.1244355,25.4069 C29.5454032,26.7294208 32.3724194,29.1068167 35.3651613,31.6249833 C35.9161694,32.087775 36.4677823,32.551775 37.0254435,33.0109417 C41.7583065,36.9114417 46.9901613,39.1649833 52.5770565,39.7117542 C53.111129,39.7637125 53.647621,39.7909 54.1883468,39.7909 C60.3649597,39.7909 67.0139516,36.3767542 74.4552823,29.40165 L70.3242339,25.0057333 C63.5754435,31.3325667 57.948629,34.1860458 53.1655645,33.711775" id="Fill-3" sketch:type="MSShapeGroup"></path>
                <path d="M53.1655645,51.7984708 C48.795,51.3725333 44.6572984,49.5715125 40.8667742,46.4473667 C40.3248387,46.0008875 39.7883468,45.5501792 39.2530645,45.100075 C36.0135484,42.3752833 32.6627419,39.55745 28.3018548,37.871825 C21.8143548,35.3663458 14.8502419,35.8690125 9.19620968,39.25295 C6.37826613,40.9397833 2.49701613,44.4699292 0.543991935,47.1240333 L5.40629032,50.6964708 C6.91052419,48.6519708 10.1312903,45.7217625 12.2996371,44.425825 C16.4058871,41.968075 21.3171774,41.6400125 26.1244355,43.4954083 C29.5454032,44.817325 32.3724194,47.195325 35.3651613,49.7116792 C35.9161694,50.1756792 36.4677823,50.6396792 37.0254435,51.0988458 C41.7583065,54.9993458 46.9901613,57.2540958 52.5770565,57.8008667 C53.111129,57.852825 53.647621,57.8782 54.1883468,57.8782 C60.3649597,57.8782 67.0139516,54.4658667 74.4552823,47.4895542 L70.3242339,43.0936375 C63.5754435,49.4204708 57.948629,52.2745542 53.1655645,51.7984708" id="Fill-5" sketch:type="MSShapeGroup"></path>
            </g>
        </g>
    </g>
</svg>