<?xml version="1.0" encoding="UTF-8" standalone="no"?>
<svg width="50px" height="42px" viewBox="0 0 50 42" version="1.1" xmlns="http://www.w3.org/2000/svg" xmlns:xlink="http://www.w3.org/1999/xlink" xmlns:sketch="http://www.bohemiancoding.com/sketch/ns">
    <!-- Generator: Sketch 3.4 (15588) - http://www.bohemiancoding.com/sketch -->
    <title>Artboard 7</title>
    <desc>Created with Sketch.</desc>
    <defs></defs>
    <g id="Page-1" stroke="none" stroke-width="1" fill="none" fill-rule="evenodd" sketch:type="MSPage">
        <g id="Artboard-7" sketch:type="MSArtboardGroup" fill="#FFFFFF">
            <g id="Page-1" sketch:type="MSLayerGroup">
                <path d="M8.19959677,5.5472625 C10.9370968,3.8946375 14.2112903,3.67404375 17.416129,4.9216375 C19.6971774,5.81091875 21.5814516,7.40991875 23.5770161,9.10235625 C23.9439516,9.41354375 24.3116935,9.72554375 24.6834677,10.0342937 C27.8387097,12.6570437 31.3266129,14.1731687 35.0516129,14.540825 C35.4072581,14.5753562 35.7649194,14.5936375 36.1258065,14.5936375 C40.2435484,14.5936375 44.6762097,12.298325 49.6370968,7.6077625 L46.8826613,4.65148125 C42.3834677,8.9061375 38.6326613,10.82445 35.4435484,10.5055437 C32.5302419,10.218325 29.771371,9.0077 27.2443548,6.9073875 C26.8830645,6.6067625 26.5254032,6.3037 26.1685484,6.00104375 C24.008871,4.16885625 21.775,2.2737 18.8677419,1.14066875 C14.5427419,-0.5448625 9.90040323,-0.2068625 6.13104839,2.06935625 C4.25241935,3.20360625 1.66451613,5.577325 0.362903226,7.36116875 L3.60443548,9.763325 C4.60685484,8.38979375 6.75403226,6.41948125 8.19959677,5.5472625" id="Fill-1" sketch:type="MSShapeGroup"></path>
                <path d="M35.4437097,22.6682625 C32.53,22.3806375 29.7715323,21.1700125 27.2445161,19.0697 C26.8832258,18.769075 26.5255645,18.4660125 26.1687097,18.1633562 C24.0090323,16.3311687 21.7751613,14.4360125 18.8679032,13.3029812 C14.5429032,11.61745 9.90016129,11.9558562 6.13080645,14.2316687 C4.25217742,15.3655125 1.66467742,17.7396375 0.36266129,19.523075 L3.60419355,21.92645 C4.60701613,20.5525125 6.75419355,18.5817937 8.19975806,17.709575 C10.9372581,16.0573562 14.2114516,15.83595 17.4162903,17.08395 C19.6969355,17.9732312 21.5816129,19.571825 23.5767742,21.265075 C23.9441129,21.5762625 24.3118548,21.8882625 24.683629,22.1970125 C27.838871,24.8197625 31.3267742,26.335075 35.051371,26.7027312 C35.4074194,26.7376687 35.7650806,26.75595 36.1255645,26.75595 C40.2433065,26.75595 44.6759677,24.4602312 49.6368548,19.770075 L46.8828226,16.8142 C42.383629,21.06845 38.6324194,22.9871687 35.4437097,22.6682625" id="Fill-3" sketch:type="MSShapeGroup"></path>
                <path d="M35.4437097,34.8300063 C32.53,34.5436 29.7715323,33.3325688 27.2445161,31.23185 C26.8832258,30.9316313 26.5255645,30.6285688 26.1687097,30.3259125 C24.0090323,28.493725 21.7751613,26.598975 18.8679032,25.4655375 C14.5429032,23.7808188 9.90016129,24.1188188 6.13080645,26.394225 C4.25217742,27.528475 1.66467742,29.9021938 0.36266129,31.68685 L3.60419355,34.0890063 C4.60701613,32.7142563 6.75419355,30.7439438 8.19975806,29.8725375 C10.9372581,28.2199125 14.2114516,27.9993188 17.4162903,29.2469125 C19.6969355,30.1357875 21.5816129,31.7347875 23.5767742,33.4268188 C23.9441129,33.7388188 24.3118548,34.0508188 24.683629,34.3595688 C27.838871,36.9823188 31.3267742,38.4984438 35.051371,38.8661 C35.4074194,38.9010375 35.7650806,38.9181 36.1255645,38.9181 C40.2433065,38.9181 44.6759677,36.6236 49.6368548,31.9326313 L46.8828226,28.9767563 C42.383629,33.2310063 38.6324194,35.1501313 35.4437097,34.8300063" id="Fill-5" sketch:type="MSShapeGroup"></path>
            </g>
        </g>
    </g>
</svg>